<?xml version="1.0" encoding="UTF-8"?>
<svg version="1.1" xmlns="http://www.w3.org/2000/svg" width="180" height="180">
<path d="M0 0 C1.45193253 -0.00956978 1.45193253 -0.00956978 2.93319702 -0.01933289 C3.98214142 -0.02044571 5.03108582 -0.02155853 6.11181641 -0.02270508 C7.18710602 -0.02603348 8.26239563 -0.02936188 9.37026978 -0.03279114 C11.6483721 -0.03786093 13.92648188 -0.04019945 16.20458984 -0.04003906 C19.69201909 -0.04222295 23.17913079 -0.06037116 26.66650391 -0.0793457 C28.87744032 -0.0822801 31.08837824 -0.08426459 33.29931641 -0.08520508 C34.34421234 -0.09239059 35.38910828 -0.09957611 36.46566772 -0.10697937 C37.43992706 -0.10390274 38.4141864 -0.10082611 39.41796875 -0.09765625 C40.27353363 -0.09908127 41.12909851 -0.10050629 42.0105896 -0.10197449 C44.58332381 0.17127965 46.16372598 0.75672077 48.33837891 2.14526367 C50.03048404 4.88647399 51.37258815 7.7159132 52.77587891 10.61401367 C54.5544196 13.49524959 55.21170026 14.01330577 58.33837891 15.14526367 C60.8519992 15.32820904 63.25371445 15.40531351 65.765625 15.38476562 C66.87858192 15.38778687 66.87858192 15.38778687 68.01402283 15.39086914 C69.6220093 15.39440911 71.23000972 15.39365437 72.83799362 15.3890934 C75.38569899 15.38349242 77.93295041 15.39267162 80.48062134 15.40629578 C87.72294132 15.44339104 94.96510718 15.46196737 102.20751953 15.45068359 C106.64088773 15.44482383 111.07361707 15.46313457 115.50685501 15.49657249 C117.19327636 15.50451384 118.87976757 15.50326664 120.56617355 15.49254799 C122.92893357 15.47817734 125.2896934 15.49453364 127.65234375 15.51757812 C128.6905703 15.49992653 128.6905703 15.49992653 129.74977112 15.48191833 C135.29506833 15.58762319 137.57026766 17.37183055 141.33837891 21.14526367 C142.69277558 23.85405703 142.40339341 26.15459635 142.33837891 29.14526367 C143.42119141 29.20713867 143.42119141 29.20713867 144.52587891 29.27026367 C148.60690041 30.53991481 149.82368917 32.72249153 152.33837891 36.14526367 C155.7730338 43.01457347 152.69387473 54.12264261 151.85736084 61.61099243 C151.38972165 65.79963676 150.93699173 69.98986681 150.48681641 74.18041992 C150.39220123 75.06060287 150.29758606 75.94078583 150.20010376 76.84764099 C149.49101501 83.52374942 148.85576851 90.20491921 148.25244141 96.89135742 C148.16474487 97.85990662 148.07704834 98.82845581 147.98669434 99.82635498 C147.5609143 104.5470501 147.1430976 109.26831985 146.73388672 113.99047852 C146.57879096 115.72568321 146.42352581 117.46087277 146.26806641 119.19604492 C146.1713414 120.35637489 146.1713414 120.35637489 146.07266235 121.54014587 C145.35774457 129.40568866 144.55546439 136.9137449 139.33837891 143.14526367 C134.52892157 146.77689472 131.07444422 148.26541416 125.09614563 148.29243469 C124.00974289 148.29959 122.92334015 148.3067453 121.80401611 148.31411743 C120.61177429 148.31680634 119.41953247 148.31949524 118.19116211 148.32226562 C116.9356102 148.32883682 115.68005829 148.33540802 114.38645935 148.34217834 C110.22070591 148.36320219 106.05495219 148.37358071 101.88916016 148.38354492 C100.45330473 148.38759342 99.0174495 148.39171037 97.58159447 148.395895 C90.83370897 148.4149448 84.08583438 148.42917498 77.33792716 148.43750697 C69.55842899 148.44727213 61.77921591 148.47357338 53.99981815 148.51400787 C47.98099637 148.54421355 41.9622561 148.55898014 35.94336003 148.56228799 C32.35144247 148.56463386 28.75982953 148.57353307 25.16799355 148.59874916 C21.15600413 148.62645959 17.14464752 148.62218523 13.13256836 148.61523438 C11.95044769 148.62804443 10.76832703 148.64085449 9.55038452 148.65405273 C1.15102961 148.60105547 -4.23222803 147.35100067 -10.53662109 141.45776367 C-15.81367027 133.23177524 -15.48193189 122.08144034 -16.35302734 112.54370117 C-16.50417053 110.93660438 -16.65586783 109.32955962 -16.80809021 107.7225647 C-17.20549064 103.51391561 -17.59639679 99.30469037 -17.9855957 95.09527588 C-18.61020178 88.35231124 -19.2449736 81.61029554 -19.87934685 74.86824417 C-20.09893861 72.52483478 -20.31588365 70.18119252 -20.53236389 67.8374939 C-20.66728069 66.39108853 -20.80224233 64.94468735 -20.93725586 63.49829102 C-21.05335709 62.24414398 -21.16945831 60.98999695 -21.28907776 59.69784546 C-21.65964052 56.1641505 -22.1537669 52.66143241 -22.66162109 49.14526367 C-22.7938311 47.10617865 -22.87961406 45.06337962 -22.91162109 43.02026367 C-22.93740234 42.02768555 -22.96318359 41.03510742 -22.98974609 40.01245117 C-22.59015505 36.52078662 -21.8718032 34.88553011 -19.66162109 32.14526367 C-18.45718522 31.56558865 -17.23968007 31.01260996 -16.01318359 30.48120117 C-14.11469591 29.58690671 -14.11469591 29.58690671 -12.66162109 28.14526367 C-11.74575799 24.69340189 -11.9101891 21.32008506 -12.03662109 17.77026367 C-12.32580348 7.30186111 -12.32580348 7.30186111 -9.26318359 3.54370117 C-5.88415349 0.42849924 -4.45901698 0.01990327 0 0 Z M55.33837891 47.14526367 C49.15585206 55.28203751 44.33837891 66.69289108 44.33837891 77.14526367 C32.95337891 76.65026367 32.95337891 76.65026367 21.33837891 76.14526367 C23.17045474 79.80941533 25.25872513 82.97564968 27.65087891 86.27026367 C28.08819336 86.87717041 28.52550781 87.48407715 28.97607422 88.109375 C29.92778661 89.42936883 30.88080129 90.74842448 31.83496094 92.06665039 C33.35962697 94.17464108 34.87884325 96.28646785 36.39697266 98.39916992 C42.75680224 107.23968659 49.17662862 116.0334385 55.66943359 124.77685547 C58.67324954 128.83323448 61.58360819 132.91544458 64.33837891 137.14526367 C68.38623044 133.30385994 71.71824476 129.1946837 75.02587891 124.70776367 C75.55133301 124.00111572 76.07678711 123.29446777 76.61816406 122.56640625 C80.26763883 117.64176726 83.84818929 112.67038522 87.39208984 107.66943359 C100.23553175 89.58047581 100.23553175 89.58047581 107.02612305 81.0168457 C108.52974324 79.25329859 108.52974324 79.25329859 108.33837891 77.14526367 C99.42837891 77.14526367 90.51837891 77.14526367 81.33837891 77.14526367 C84.96404074 60.82978544 89.70783038 48.36118022 103.95947266 38.29370117 C110.01391169 34.55229745 116.22894049 31.22245131 123.33837891 30.14526367 C123.33837891 29.81526367 123.33837891 29.48526367 123.33837891 29.14526367 C118.89505118 29.06990718 114.45208287 29.01610644 110.00830078 28.98046875 C108.50335189 28.96557936 106.9984448 28.94526097 105.49365234 28.91894531 C85.89994438 28.58540756 69.1015165 31.94944452 55.33837891 47.14526367 Z " fill="#D69828" transform="translate(24.66162109375,15.854736328125)"/>
<path d="M0 0 C1.04697556 0.00374634 2.09395111 0.00749268 3.1726532 0.01135254 C5.37215024 0.02473326 7.57160213 0.05244232 9.77075195 0.09375 C13.14383969 0.15638222 16.51505867 0.17573073 19.88867188 0.1875 C22.02997081 0.20582949 24.17125071 0.22657768 26.3125 0.25 C27.32186111 0.25849976 28.33122223 0.26699951 29.37117004 0.27575684 C30.773592 0.30457947 30.773592 0.30457947 32.2043457 0.33398438 C33.02626907 0.34764038 33.84819244 0.36129639 34.69502258 0.37536621 C36.82421875 0.65625 36.82421875 0.65625 39.82421875 2.65625 C40.11296875 3.254375 40.40171875 3.8525 40.69921875 4.46875 C42.76559024 8.48669457 45.54899966 11.23117697 49.82421875 12.65625 C52.27150169 12.75023944 54.69074816 12.78956946 57.13793945 12.78222656 C57.87976471 12.7840947 58.62158997 12.78596283 59.38589478 12.78788757 C60.99662745 12.79189 62.6073658 12.79396627 64.21810341 12.79434967 C67.6451349 12.79776781 71.07197711 12.81913377 74.49894238 12.83958054 C80.87879617 12.87758642 87.25844778 12.9088657 93.63842773 12.90673828 C98.077162 12.90595052 102.5152031 12.92934173 106.95375633 12.9686203 C108.64295522 12.9790721 110.3322342 12.98061033 112.02144814 12.97296906 C114.38916396 12.96332774 116.75478741 12.98456252 119.12231445 13.01269531 C119.81603653 13.00249863 120.50975861 12.99230194 121.22450256 12.98179626 C124.8344355 13.05846035 127.4012394 13.68628826 130.30558777 15.75897217 C132.82421875 18.65625 132.82421875 18.65625 132.82421875 25.65625 C82.66421875 25.65625 32.50421875 25.65625 -19.17578125 25.65625 C-19.17578125 6.65625 -19.17578125 6.65625 -15.87426758 2.50976562 C-10.79013747 -0.09658714 -5.60620862 -0.13854279 0 0 Z " fill="#CA8D24" transform="translate(33.17578125,18.34375)"/>
<path d="M0 0 C1.45193253 -0.00956978 1.45193253 -0.00956978 2.93319702 -0.01933289 C3.98214142 -0.02044571 5.03108582 -0.02155853 6.11181641 -0.02270508 C7.18710602 -0.02603348 8.26239563 -0.02936188 9.37026978 -0.03279114 C11.6483721 -0.03786093 13.92648188 -0.04019945 16.20458984 -0.04003906 C19.69201909 -0.04222295 23.17913079 -0.06037116 26.66650391 -0.0793457 C28.87744032 -0.0822801 31.08837824 -0.08426459 33.29931641 -0.08520508 C34.34421234 -0.09239059 35.38910828 -0.09957611 36.46566772 -0.10697937 C37.43992706 -0.10390274 38.4141864 -0.10082611 39.41796875 -0.09765625 C40.27353363 -0.09908127 41.12909851 -0.10050629 42.0105896 -0.10197449 C44.58232834 0.17117392 46.15700051 0.77155675 48.33837891 2.14526367 C50.15087891 4.58276367 50.15087891 4.58276367 51.33837891 7.14526367 C51.00837891 8.13526367 50.67837891 9.12526367 50.33837891 10.14526367 C49.34837891 9.15526367 49.34837891 9.15526367 48.33837891 8.14526367 C48.33837891 7.15526367 48.33837891 6.16526367 48.33837891 5.14526367 C45.49389603 4.19710271 43.64228904 3.99829989 40.68676758 3.95239258 C39.27466255 3.92829819 39.27466255 3.92829819 37.83403015 3.90371704 C33.53397431 3.85915997 29.23407065 3.81821021 24.93383789 3.79516602 C22.66713191 3.77860294 20.40047824 3.75130853 18.1340332 3.71313477 C14.86202971 3.65832734 11.59124855 3.63648633 8.31884766 3.62182617 C7.30928513 3.5991568 6.2997226 3.57648743 5.25956726 3.5531311 C-0.99244682 3.56870252 -0.99244682 3.56870252 -6.22290039 6.67797852 C-7.43006714 7.89928467 -7.43006714 7.89928467 -8.66162109 9.14526367 C-9.32162109 9.14526367 -9.98162109 9.14526367 -10.66162109 9.14526367 C-10.66162109 15.41526367 -10.66162109 21.68526367 -10.66162109 28.14526367 C39.49837891 28.14526367 89.65837891 28.14526367 141.33837891 28.14526367 C141.33837891 26.49526367 141.33837891 24.84526367 141.33837891 23.14526367 C141.66837891 23.14526367 141.99837891 23.14526367 142.33837891 23.14526367 C142.33837891 25.12526367 142.33837891 27.10526367 142.33837891 29.14526367 C143.42119141 29.20713867 143.42119141 29.20713867 144.52587891 29.27026367 C148.60690041 30.53991481 149.82368917 32.72249153 152.33837891 36.14526367 C153.5411071 38.55072005 153.43909363 40.0952332 153.40087891 42.77026367 C153.39185547 43.5875293 153.38283203 44.40479492 153.37353516 45.24682617 C153.35613281 46.18655273 153.35613281 46.18655273 153.33837891 47.14526367 C153.00837891 47.14526367 152.67837891 47.14526367 152.33837891 47.14526367 C152.29970703 46.20553711 152.29970703 46.20553711 152.26025391 45.24682617 C152.20353516 44.42956055 152.14681641 43.61229492 152.08837891 42.77026367 C152.04197266 41.9581543 151.99556641 41.14604492 151.94775391 40.30932617 C151.56261951 38.00297641 151.56261951 38.00297641 149.54150391 37.04370117 C148.81447266 36.7472168 148.08744141 36.45073242 147.33837891 36.14526367 C146.7313916 35.63922607 146.1244043 35.13318848 145.49902344 34.61181641 C142.94769906 32.88008697 141.61707507 32.77089574 138.56494141 32.78198242 C137.20369141 32.78294922 137.20369141 32.78294922 135.81494141 32.78393555 C134.87392578 32.80004883 133.93291016 32.81616211 132.96337891 32.83276367 C132.03009766 32.82954102 131.09681641 32.82631836 130.13525391 32.82299805 C125.13739472 32.86193321 121.0053287 33.18094518 116.33837891 35.14526367 C115.40638672 35.51522461 114.47439453 35.88518555 113.51416016 36.26635742 C105.97859238 39.73086812 101.110223 43.89873933 95.61572266 49.94995117 C93.33837891 52.14526367 93.33837891 52.14526367 90.33837891 52.14526367 C95.28879879 40.74898456 107.48218266 34.68416235 118.33837891 30.14526367 C95.12140243 28.80388175 95.12140243 28.80388175 73.11181641 34.81323242 C72.19658203 35.25280273 71.28134766 35.69237305 70.33837891 36.14526367 C68.33837891 35.14526367 68.33837891 35.14526367 66.33837891 33.14526367 C63.89590274 32.94183611 61.56630548 32.86201665 59.12231445 32.87060547 C58.00738617 32.86293907 58.00738617 32.86293907 56.86993408 32.8551178 C54.40490738 32.84118204 51.94015915 32.84218196 49.47509766 32.84448242 C47.76357417 32.84059675 46.05205166 32.83626235 44.3405304 32.83149719 C40.74839151 32.82402575 37.15635089 32.82433224 33.56420898 32.82958984 C28.96400632 32.83537588 24.3642074 32.81847909 19.76407146 32.79524517 C16.2269913 32.78049915 12.69000806 32.77963748 9.1529026 32.7827549 C7.4572552 32.7822418 5.76160235 32.77700612 4.06598473 32.76694298 C1.69126737 32.75458331 -0.68266787 32.76136771 -3.05737305 32.77294922 C-3.75626144 32.76530548 -4.45514984 32.75766174 -5.17521667 32.74978638 C-9.52339051 32.7965738 -12.15098666 33.58948166 -15.66162109 36.14526367 C-16.24427734 36.55518555 -16.82693359 36.96510742 -17.42724609 37.38745117 C-19.38879048 40.1807897 -19.23235036 42.91238493 -19.41162109 46.27026367 C-19.48896484 47.5309668 -19.56630859 48.79166992 -19.64599609 50.09057617 C-19.65373047 51.60264648 -19.65373047 51.60264648 -19.66162109 53.14526367 C-19.33162109 53.47526367 -19.00162109 53.80526367 -18.66162109 54.14526367 C-17.59644288 61.34825198 -17.54215158 68.4375774 -17.59912109 75.70776367 C-17.60363281 76.8118457 -17.60814453 77.91592773 -17.61279297 79.0534668 C-17.6244697 81.75079067 -17.64084584 84.44799714 -17.66162109 87.14526367 C-17.99162109 87.14526367 -18.32162109 87.14526367 -18.66162109 87.14526367 C-19.23961391 81.9540888 -19.80889436 76.76205371 -20.37060547 71.5690918 C-20.5623051 69.80777105 -20.75625947 68.04669403 -20.95263672 66.28588867 C-24.09402394 38.07751361 -24.09402394 38.07751361 -19.66162109 32.14526367 C-17.859375 31.14672852 -17.859375 31.14672852 -16.01318359 30.48120117 C-14.11469591 29.58690671 -14.11469591 29.58690671 -12.66162109 28.14526367 C-11.74575799 24.69340189 -11.9101891 21.32008506 -12.03662109 17.77026367 C-12.32580348 7.30186111 -12.32580348 7.30186111 -9.26318359 3.54370117 C-5.88415349 0.42849924 -4.45901698 0.01990327 0 0 Z " fill="#CA963A" transform="translate(24.66162109375,15.854736328125)"/>
<path d="M0 0 C1.00563995 0.00916946 2.01127991 0.01833893 3.0473938 0.02778625 C6.35384892 0.06270988 9.65907935 0.12639234 12.96508789 0.19042969 C15.26434626 0.22034386 17.56362873 0.24845567 19.8629303 0.27484131 C25.90157552 0.34896794 31.93958279 0.44752485 37.9777832 0.5512085 C44.14457671 0.65276417 50.31166008 0.7311633 56.47875977 0.81152344 C68.56964998 0.97248079 80.65999269 1.15925406 92.75024414 1.36230469 C92.75024414 1.69230469 92.75024414 2.02230469 92.75024414 2.36230469 C91.80922852 2.5440625 90.86821289 2.72582031 89.89868164 2.91308594 C88.65344727 3.16445313 87.40821289 3.41582031 86.12524414 3.67480469 C84.2805957 4.04025391 84.2805957 4.04025391 82.39868164 4.41308594 C78.71063886 5.23782923 78.71063886 5.23782923 75.41430664 7.03027344 C74.53516602 7.46984375 73.65602539 7.90941406 72.75024414 8.36230469 C70.75024414 7.36230469 70.75024414 7.36230469 68.75024414 5.36230469 C66.30776797 5.15887713 63.97817071 5.07905766 61.53417969 5.08764648 C60.79089417 5.08253555 60.04760864 5.07742462 59.28179932 5.07215881 C56.81677262 5.05822305 54.35202438 5.05922298 51.88696289 5.06152344 C50.17543941 5.05763776 48.46391689 5.05330336 46.75239563 5.04853821 C43.16025675 5.04106677 39.56821612 5.04137326 35.97607422 5.04663086 C31.37587155 5.05241689 26.77607263 5.03552011 22.1759367 5.01228619 C18.63885653 4.99754016 15.1018733 4.99667849 11.56476784 4.99979591 C9.86912043 4.99928281 8.17346758 4.99404714 6.47784996 4.98398399 C4.10313261 4.97162433 1.72919736 4.97840872 -0.64550781 4.98999023 C-1.34439621 4.9823465 -2.04328461 4.97470276 -2.76335144 4.96682739 C-7.11152528 5.01361482 -9.73912143 5.80652268 -13.24975586 8.36230469 C-14.12374023 8.9771875 -14.12374023 8.9771875 -15.01538086 9.60449219 C-16.97692525 12.39783072 -16.82048513 15.12942594 -16.99975586 18.48730469 C-17.07709961 19.74800781 -17.15444336 21.00871094 -17.23413086 22.30761719 C-17.24186523 23.8196875 -17.24186523 23.8196875 -17.24975586 25.36230469 C-16.91975586 25.69230469 -16.58975586 26.02230469 -16.24975586 26.36230469 C-15.18457765 33.565293 -15.13028635 40.65461841 -15.18725586 47.92480469 C-15.19176758 49.02888672 -15.1962793 50.13296875 -15.20092773 51.27050781 C-15.21260446 53.96783169 -15.22898061 56.66503816 -15.24975586 59.36230469 C-15.57975586 59.36230469 -15.90975586 59.36230469 -16.24975586 59.36230469 C-16.82774868 54.17112981 -17.39702912 48.97909473 -17.95874023 43.78613281 C-18.15043986 42.02481207 -18.34439424 40.26373504 -18.54077148 38.50292969 C-21.7124576 10.02248292 -21.7124576 10.02248292 -17.24975586 4.36230469 C-11.42894877 0.20194909 -7.03764281 -0.17806344 0 0 Z " fill="#FED574" transform="translate(22.249755859375,43.6376953125)"/>
<path d="M0 0 C44.22 0 88.44 0 134 0 C133.34 0.99 132.68 1.98 132 3 C129.72923279 3.37752342 129.72923279 3.37752342 126.83764648 3.38095093 C125.19709793 3.39364014 125.19709793 3.39364014 123.52340698 3.40658569 C122.31814362 3.400513 121.11288025 3.39444031 119.87109375 3.38818359 C118.60605011 3.39344055 117.34100647 3.39869751 116.03762817 3.40411377 C112.56242932 3.41781885 109.08749691 3.41247577 105.61229324 3.40297651 C101.98037228 3.39539633 98.34847457 3.40242094 94.71655273 3.40713501 C88.61665743 3.41259738 82.51687098 3.40538841 76.41699219 3.39111328 C69.35847086 3.37478576 62.30020947 3.38007393 55.24169445 3.3965925 C49.18814712 3.41019374 43.13467816 3.41213373 37.08112049 3.40427649 C33.46263682 3.39959243 29.84427544 3.39899507 26.22579956 3.40888596 C22.19334444 3.41913792 18.16133947 3.40494059 14.12890625 3.38818359 C12.92364288 3.39425629 11.71837952 3.40032898 10.47659302 3.40658569 C9.38289398 3.39812622 8.28919495 3.38966675 7.16235352 3.38095093 C5.7310183 3.37925431 5.7310183 3.37925431 4.27076721 3.37752342 C3.52141403 3.25294069 2.77206085 3.12835796 2 3 C1.34 2.01 0.68 1.02 0 0 Z " fill="#BB8D46" transform="translate(23,161)"/>
<path d="M0 0 C0.33 0 0.66 0 1 0 C1 1.98 1 3.96 1 6 C1.721875 6.04125 2.44375 6.0825 3.1875 6.125 C7.2685215 7.39465113 8.48531026 9.57722785 11 13 C12.20272819 15.40545638 12.10071472 16.94996953 12.0625 19.625 C12.05347656 20.44226563 12.04445312 21.25953125 12.03515625 22.1015625 C12.02355469 22.72804688 12.01195312 23.35453125 12 24 C11.67 24 11.34 24 11 24 C10.97421875 23.37351562 10.9484375 22.74703125 10.921875 22.1015625 C10.86515625 21.28429687 10.8084375 20.46703125 10.75 19.625 C10.70359375 18.81289063 10.6571875 18.00078125 10.609375 17.1640625 C10.22424061 14.85771274 10.22424061 14.85771274 8.203125 13.8984375 C7.47609375 13.60195313 6.7490625 13.30546875 6 13 C5.3930127 12.4939624 4.78602539 11.9879248 4.16064453 11.46655273 C1.60932016 9.7348233 0.27869617 9.62563207 -2.7734375 9.63671875 C-4.1346875 9.63768555 -4.1346875 9.63768555 -5.5234375 9.63867188 C-6.93496094 9.6628418 -6.93496094 9.6628418 -8.375 9.6875 C-9.30828125 9.68427734 -10.2415625 9.68105469 -11.203125 9.67773438 C-16.20098418 9.71666954 -20.33305021 10.03568151 -25 12 C-26.39798828 12.55494141 -26.39798828 12.55494141 -27.82421875 13.12109375 C-35.35978653 16.58560445 -40.2281559 20.75347566 -45.72265625 26.8046875 C-48 29 -48 29 -51 29 C-46.57961632 18.82390841 -35.88712011 12.58494166 -26.1875 8.1875 C-20.274531 5.9846292 -14.92420283 5.87350857 -8.6875 5.9375 C-7.85154297 5.94201172 -7.01558594 5.94652344 -6.15429688 5.95117188 C-4.10283351 5.96289452 -2.05140727 5.98082797 0 6 C0 4.02 0 2.04 0 0 Z " fill="#FAD37A" transform="translate(166,39)"/>
<path d="M0 0 C0.83968323 -0.00029205 1.67936646 -0.00058411 2.54449463 -0.00088501 C5.30402162 0.00050192 8.06327442 0.01603305 10.82275391 0.03173828 C12.74231824 0.03547067 14.66188449 0.03831658 16.58145142 0.04031372 C21.62190047 0.04793235 26.66223339 0.06756562 31.70263672 0.08972168 C36.85073272 0.11021828 41.99884757 0.11932359 47.14697266 0.12939453 C57.23947146 0.15081319 67.33188426 0.18492774 77.42431641 0.22705078 C77.42431641 0.55705078 77.42431641 0.88705078 77.42431641 1.22705078 C69.20131756 2.27206644 61.08548229 2.32056034 52.81534386 2.24108505 C50.38941085 2.21881018 47.96355864 2.204898 45.53755188 2.19338989 C38.64772645 2.16001599 31.75803711 2.11793957 24.8684082 2.05566406 C20.63587089 2.01799652 16.40346582 1.99499362 12.1707859 1.98135757 C10.56442355 1.97332043 8.95807876 1.95973574 7.35181236 1.94042587 C5.10978149 1.91391126 2.86838903 1.90605158 0.6262207 1.90234375 C-0.64711624 1.89266571 -1.92045319 1.88298767 -3.2323761 1.87301636 C-6.83667494 2.25468806 -8.66538271 3.12897326 -11.57568359 5.22705078 C-12.44966797 5.84193359 -12.44966797 5.84193359 -13.34130859 6.46923828 C-15.30285298 9.26257681 -15.14641286 11.99417204 -15.32568359 15.35205078 C-15.40302734 16.61275391 -15.48037109 17.87345703 -15.56005859 19.17236328 C-15.56779297 20.68443359 -15.56779297 20.68443359 -15.57568359 22.22705078 C-15.24568359 22.55705078 -14.91568359 22.88705078 -14.57568359 23.22705078 C-13.51050538 30.43003909 -13.45621408 37.51936451 -13.51318359 44.78955078 C-13.51769531 45.89363281 -13.52220703 46.99771484 -13.52685547 48.13525391 C-13.5385322 50.83257778 -13.55490834 53.52978425 -13.57568359 56.22705078 C-13.90568359 56.22705078 -14.23568359 56.22705078 -14.57568359 56.22705078 C-15.15367641 51.0358759 -15.72295686 45.84384082 -16.28466797 40.65087891 C-16.4763676 38.88955816 -16.67032197 37.12848113 -16.86669922 35.36767578 C-19.91403396 8.00385361 -19.91403396 8.00385361 -16.92724609 4.03857422 C-11.77671196 0.07086623 -6.27975749 -0.0576992 0 0 Z " fill="#FCBF41" transform="translate(20.57568359375,46.77294921875)"/>
<path d="M0 0 C1.45170593 -0.00934319 1.45170593 -0.00934319 2.93273926 -0.01887512 C3.97136108 -0.00966537 5.00998291 -0.00045563 6.08007812 0.0090332 C7.6887677 0.00828545 7.6887677 0.00828545 9.32995605 0.00752258 C11.59612889 0.0098618 13.86230438 0.01958128 16.12841797 0.03613281 C19.59821798 0.05972531 23.06724953 0.0566923 26.53710938 0.05004883 C28.73893688 0.05562569 30.94076114 0.06273561 33.14257812 0.0715332 C34.18119995 0.0706218 35.21982178 0.06971039 36.28991699 0.06877136 C37.25772095 0.07830338 38.2255249 0.08783539 39.22265625 0.09765625 C40.07218872 0.10226364 40.92172119 0.10687103 41.79699707 0.11161804 C44.3533903 0.3995814 45.93929428 1.0083765 48.11132812 2.37231445 C49.92382812 4.80981445 49.92382812 4.80981445 51.11132812 7.37231445 C50.78132813 8.36231445 50.45132813 9.35231445 50.11132812 10.37231445 C49.45132813 9.71231445 48.79132813 9.05231445 48.11132812 8.37231445 C48.11132812 7.38231445 48.11132812 6.39231445 48.11132812 5.37231445 C47.12132812 5.04231445 46.13132813 4.71231445 45.11132812 4.37231445 C45.11132812 3.71231445 45.11132812 3.05231445 45.11132812 2.37231445 C38.26070961 2.41405523 31.4108988 2.48645187 24.56079102 2.57983398 C22.2320892 2.60800181 19.90329253 2.62923709 17.57446289 2.64331055 C14.22037333 2.66479735 10.86741935 2.71147955 7.51367188 2.76293945 C6.47798569 2.76416809 5.4422995 2.76539673 4.37522888 2.7666626 C-1.90618094 2.89298823 -5.7235707 3.7367926 -10.88867188 7.37231445 C-8.70538994 2.09604977 -5.69651884 -0.00422059 0 0 Z " fill="#F5CB73" transform="translate(24.888671875,15.627685546875)"/>
<path d="M0 0 C1.17829199 2.35658397 1.04414372 3.52573236 0.87890625 6.1328125 C0.83056641 6.93847656 0.78222656 7.74414062 0.73242188 8.57421875 C0.64831055 9.83685547 0.64831055 9.83685547 0.5625 11.125 C0.51029297 11.97449219 0.45808594 12.82398438 0.40429688 13.69921875 C0.27448622 15.79979124 0.1378826 17.89994191 0 20 C0.66 20 1.32 20 2 20 C2.96465491 27.22351829 3.11956114 34.28062068 3.0625 41.5625 C3.05798828 42.66658203 3.05347656 43.77066406 3.04882812 44.90820312 C3.0371514 47.605527 3.02077525 50.30273347 3 53 C2.67 53 2.34 53 2 53 C1.42200718 47.80882512 0.85272674 42.61679004 0.29101562 37.42382812 C0.099316 35.66250738 -0.09463838 33.90143035 -0.29101562 32.140625 C-3.31633398 4.97450097 -3.31633398 4.97450097 0 0 Z " fill="#EEC26A" transform="translate(4,50)"/>
<path d="M0 0 C10.2314565 0.03802891 20.46254628 0.09734958 30.69371414 0.18390274 C35.44442381 0.22342246 40.19494687 0.2555888 44.94580078 0.27099609 C49.53015166 0.2861332 54.11398969 0.32052591 58.69811249 0.36830902 C60.44756362 0.38315333 62.19708796 0.39104276 63.94660187 0.39188385 C66.39627342 0.39424617 68.84451914 0.42126426 71.29394531 0.45410156 C72.38043617 0.44655602 72.38043617 0.44655602 73.48887634 0.43885803 C77.0205797 0.5121715 78.70820927 0.76082762 81.48162842 3.03411865 C81.98269104 3.6828595 82.48375366 4.33160034 83 5 C81.35 4.67 79.7 4.34 78 4 C78 3.34 78 2.68 78 2 C52.59 2 27.18 2 1 2 C0.67 1.34 0.34 0.68 0 0 Z " fill="#E6C688" transform="translate(81,31)"/>
<path d="M0 0 C0.33 0 0.66 0 1 0 C1 2.64 1 5.28 1 8 C2.02738281 7.9278125 3.05476563 7.855625 4.11328125 7.78125 C12.08786254 7.24042068 20.00182208 6.84749237 28 7 C28.33 7.66 28.66 8.32 29 9 C28.01 9.99 27.02 10.98 26 12 C26 11.34 26 10.68 26 10 C17.09 10 8.18 10 -1 10 C-0.67 6.7 -0.34 3.4 0 0 Z " fill="#EAC477" transform="translate(107,83)"/>
<path d="M0 0 C16.17 0 32.34 0 49 0 C49 0.33 49 0.66 49 1 C32.33617041 2.18875727 15.69514315 2.10413437 -1 2 C-0.67 1.34 -0.34 0.68 0 0 Z M-3 2 C-2.34 2.33 -1.68 2.66 -1 3 C-2.28965176 4.37562854 -3.62689293 5.70766393 -5 7 C-5.66 7 -6.32 7 -7 7 C-7 10.3 -7 13.6 -7 17 C-7.33 17 -7.66 17 -8 17 C-8.13504138 15.06440687 -8.23201129 13.126128 -8.3125 11.1875 C-8.37050781 10.10855469 -8.42851562 9.02960937 -8.48828125 7.91796875 C-8 5 -8 5 -5.60546875 3.05078125 C-4.74566406 2.70402344 -3.88585937 2.35726563 -3 2 Z " fill="#EBAD36" transform="translate(21,18)"/>
<path d="M0 0 C-2.20754574 1.78301771 -4.19031713 3.0851769 -6.79296875 4.25 C-10.40713526 6.22216394 -12.9304822 8.69912407 -15.6875 11.6875 C-17.40885659 13.54975891 -19.13270293 15.27340978 -21 17 C-21.99 17 -22.98 17 -24 17 C-20.0208657 7.68713248 -10.2314087 -0.8185127 0 0 Z " fill="#F8C353" transform="translate(139,51)"/>
<path d="M0 0 C0.9583374 0.00523682 1.9166748 0.01047363 2.90405273 0.01586914 C4.45576172 0.02070312 4.45576172 0.02070312 6.03881836 0.02563477 C7.12743164 0.03401367 8.21604492 0.04239258 9.33764648 0.05102539 C10.97636719 0.05779297 10.97636719 0.05779297 12.64819336 0.06469727 C15.35723144 0.07652713 18.06616248 0.09300996 20.77514648 0.11352539 C21.10514648 1.10352539 21.43514648 2.09352539 21.77514648 3.11352539 C20.79118896 3.10567017 20.79118896 3.10567017 19.78735352 3.09765625 C16.82496086 3.07691267 13.86258346 3.06387363 10.90014648 3.05102539 C9.86760742 3.04264648 8.83506836 3.03426758 7.77124023 3.02563477 C6.78510742 3.02241211 5.79897461 3.01918945 4.78295898 3.01586914 C3.87175293 3.01063232 2.96054687 3.00539551 2.02172852 3 C-0.26172861 2.96466974 -0.26172861 2.96466974 -2.22485352 4.11352539 C-2.55485352 3.12352539 -2.88485352 2.13352539 -3.22485352 1.11352539 C-2.22485352 0.11352539 -2.22485352 0.11352539 0 0 Z " fill="#E8B95E" transform="translate(47.224853515625,89.886474609375)"/>
<path d="M0 0 C0.99 0.33 1.98 0.66 3 1 C1.15167745 2.92533599 -0.69305498 4.76096907 -2.80078125 6.40234375 C-8.98806282 11.31612659 -12.27709389 17.11765466 -16 24 C-16.66 24.99 -17.32 25.98 -18 27 C-18.57915996 19.12342452 -14.16672835 13.81612656 -9.3046875 7.95703125 C-7.75 6.3125 -7.75 6.3125 -5 4 C-4.01 4 -3.02 4 -2 4 C-1.34 2.68 -0.68 1.36 0 0 Z " fill="#F3BF54" transform="translate(90,51)"/>
<path d="M0 0 C0.33 0 0.66 0 1 0 C0.48484207 9.34956835 -0.05409279 18.68180768 -1 28 C-1.33 28 -1.66 28 -2 28 C-2.76299944 19.85351368 -3.21521251 12.11388044 -2 4 C-1.34 4 -0.68 4 0 4 C0 2.68 0 1.36 0 0 Z " fill="#EAB550" transform="translate(176,63)"/>
<path d="M0 0 C1.02480469 0.00644531 2.04960937 0.01289062 3.10546875 0.01953125 C4.16894531 0.03628906 5.23242188 0.05304687 6.328125 0.0703125 C7.94654297 0.08384766 7.94654297 0.08384766 9.59765625 0.09765625 C12.25803778 0.12119945 14.91796836 0.15408451 17.578125 0.1953125 C17.908125 0.8553125 18.238125 1.5153125 18.578125 2.1953125 C17.97339355 2.18483887 17.36866211 2.17436523 16.74560547 2.16357422 C13.9814883 2.12176582 11.21743792 2.09590799 8.453125 2.0703125 C7.50179687 2.05355469 6.55046875 2.03679688 5.5703125 2.01953125 C0.49229245 1.98426722 -3.66675025 2.16197633 -8.421875 4.1953125 C-8.751875 3.5353125 -9.081875 2.8753125 -9.421875 2.1953125 C-6.16433576 0.25821612 -3.76577572 -0.04184195 0 0 Z " fill="#FCBF40" transform="translate(149.421875,46.8046875)"/>
<path d="M0 0 C-1.1446875 0.6496875 -1.1446875 0.6496875 -2.3125 1.3125 C-5.52613676 3.2831355 -5.52613676 3.2831355 -8 6 C-8.58218332 9.4223884 -8.58218332 9.4223884 -8.6875 13.1875 C-8.75324219 14.45980469 -8.81898437 15.73210937 -8.88671875 17.04296875 C-8.92410156 18.01878906 -8.96148437 18.99460937 -9 20 C-9.33 20 -9.66 20 -10 20 C-10.08089542 17.22858283 -10.14044062 14.45952181 -10.1875 11.6875 C-10.22520508 10.50897461 -10.22520508 10.50897461 -10.26367188 9.30664062 C-10.27333984 8.54931641 -10.28300781 7.79199219 -10.29296875 7.01171875 C-10.3086792 6.31522217 -10.32438965 5.61872559 -10.34057617 4.90112305 C-9.89143917 2.39400486 -8.98030359 1.55626316 -7 0 C-3.86650268 -1.04449911 -3.01031744 -0.93423645 0 0 Z " fill="#F9B72F" transform="translate(14,49)"/>
<path d="M0 0 C2.79573295 1.86382196 3.73852133 3.26365012 5.0625 6.375 C5.30053601 9.39349924 5.24017861 12.35446367 5.0625 15.375 C4.7325 15.375 4.4025 15.375 4.0625 15.375 C4.03671875 14.74851562 4.0109375 14.12203125 3.984375 13.4765625 C3.92765625 12.65929688 3.8709375 11.84203125 3.8125 11 C3.76609375 10.18789063 3.7196875 9.37578125 3.671875 8.5390625 C3.28099868 6.22190237 3.28099868 6.22190237 1.203125 5.2109375 C0.49671875 4.93507813 -0.2096875 4.65921875 -0.9375 4.375 C-1.9275 3.715 -2.9175 3.055 -3.9375 2.375 C-3.9375 1.715 -3.9375 1.055 -3.9375 0.375 C-1.9375 -0.625 -1.9375 -0.625 0 0 Z " fill="#FACF72" transform="translate(172.9375,47.625)"/>
<path d="M0 0 C3.24969769 -0.11638036 6.4988583 -0.18730581 9.75 -0.25 C10.67039063 -0.28351562 11.59078125 -0.31703125 12.5390625 -0.3515625 C19.40898911 -0.45112665 19.40898911 -0.45112665 22.640625 2.015625 C23.08921875 2.67046875 23.5378125 3.3253125 24 4 C21.525 3.505 21.525 3.505 19 3 C19 2.34 19 1.68 19 1 C12.73 1 6.46 1 0 1 C0 0.67 0 0.34 0 0 Z " fill="#E5C17D" transform="translate(140,32)"/>
<path d="M0 0 C0.33 0 0.66 0 1 0 C0.67 5.94 0.34 11.88 0 18 C-0.33 18 -0.66 18 -1 18 C-1.22181406 15.56304285 -1.42791119 13.126474 -1.625 10.6875 C-1.68945312 9.99720703 -1.75390625 9.30691406 -1.8203125 8.59570312 C-2.11802847 4.7440028 -2.20763723 3.31145584 0 0 Z " fill="#DFBA73" transform="translate(172,105)"/>
<path d="M0 0 C-1.28524261 0.86380259 -2.57842419 1.71580369 -3.875 2.5625 C-4.59429687 3.03816406 -5.31359375 3.51382813 -6.0546875 4.00390625 C-6.69664063 4.33261719 -7.33859375 4.66132812 -8 5 C-10 4 -10 4 -11 1 C-9.5437328 0.63743142 -8.08488815 0.28520207 -6.625 -0.0625 C-5.40683594 -0.35833984 -5.40683594 -0.35833984 -4.1640625 -0.66015625 C-2 -1 -2 -1 0 0 Z " fill="#FBC85A" transform="translate(103,47)"/>
<path d="M0 0 C7.2972973 -0.48648649 7.2972973 -0.48648649 10.4375 1.6875 C12.12584648 4.18625279 12.66916395 6.02247554 13 9 C12.01 8.34 11.02 7.68 10 7 C10 6.01 10 5.02 10 4 C9.01 3.67 8.02 3.34 7 3 C7 2.34 7 1.68 7 1 C4.69 1 2.38 1 0 1 C0 0.67 0 0.34 0 0 Z " fill="#F1C15F" transform="translate(63,17)"/>
<path d="M0 0 C2 1 2 1 2 1 Z M-2 1 C-1.34 1.33 -0.68 1.66 0 2 C-1.28965176 3.37562854 -2.62689293 4.70766393 -4 6 C-4.66 6 -5.32 6 -6 6 C-6 9.3 -6 12.6 -6 16 C-6.33 16 -6.66 16 -7 16 C-7.13504138 14.06440687 -7.23201129 12.126128 -7.3125 10.1875 C-7.37050781 9.10855469 -7.42851562 8.02960937 -7.48828125 6.91796875 C-7 4 -7 4 -4.60546875 2.05078125 C-3.74566406 1.70402344 -2.88585937 1.35726563 -2 1 Z " fill="#DFAA47" transform="translate(20,19)"/>
<path d="M0 0 C0.33 0 0.66 0 1 0 C0.67 5.61 0.34 11.22 0 17 C-0.33 17 -0.66 17 -1 17 C-1.33 12.71 -1.66 8.42 -2 4 C-1.34 4 -0.68 4 0 4 C0 2.68 0 1.36 0 0 Z " fill="#F1CD80" transform="translate(176,63)"/>
<path d="M0 0 C1.12758089 3.38274266 0.81750262 4.76778223 0.0625 8.1875 C-0.13214844 9.08855469 -0.32679687 9.98960938 -0.52734375 10.91796875 C-0.68332031 11.60503906 -0.83929688 12.29210937 -1 13 C-1.33 13 -1.66 13 -2 13 C-3.125 5.375 -3.125 5.375 -2 2 C-1.34 2 -0.68 2 0 2 C0 1.34 0 0.68 0 0 Z " fill="#ECC371" transform="translate(71,78)"/>
<path d="M0 0 C-1.98 0.66 -3.96 1.32 -6 2 C-6 2.66 -6 3.32 -6 4 C-7.98 4 -9.96 4 -12 4 C-8.15336308 0.86570325 -4.95471579 -1.65157193 0 0 Z " fill="#FDDF98" transform="translate(146,47)"/>
<path d="M0 0 C0.33 0 0.66 0 1 0 C1 2.31 1 4.62 1 7 C1.66 7 2.32 7 3 7 C2.67 9.64 2.34 12.28 2 15 C1.67 15 1.34 15 1 15 C-0.03590199 9.94997778 -0.10251672 5.12583611 0 0 Z " fill="#D1AB6A" transform="translate(10,136)"/>
<path d="M0 0 C0.66 0.99 1.32 1.98 2 3 C1.3125 5.625 1.3125 5.625 0 8 C-0.99 8.33 -1.98 8.66 -3 9 C-2.01 6.03 -1.02 3.06 0 0 Z " fill="#EEC167" transform="translate(111,73)"/>
<path d="M0 0 C2.31 1.65 4.62 3.3 7 5 C5.68 5.33 4.36 5.66 3 6 C1.25 4.75 1.25 4.75 0 3 C0 2.01 0 1.02 0 0 Z " fill="#B88436" transform="translate(15,155)"/>
<path d="M0 0 C0.75 1.75 0.75 1.75 1 4 C-0.9375 6.25 -0.9375 6.25 -3 8 C-3 3.73173127 -2.62386487 3.06117568 0 0 Z " fill="#D0A353" transform="translate(110,125)"/>
</svg>
