<?xml version="1.0" encoding="UTF-8"?>
<svg version="1.1" xmlns="http://www.w3.org/2000/svg" width="180" height="180">
<path d="M0 0 C1.41683327 -0.0238678 1.41683327 -0.0238678 2.86228943 -0.04821777 C3.87590042 -0.04841919 4.88951141 -0.04862061 5.93383789 -0.04882812 C6.98172989 -0.05644165 8.02962189 -0.06405518 9.10926819 -0.07189941 C11.32412332 -0.08269881 13.53902936 -0.08555418 15.75390625 -0.08105469 C19.14092 -0.08008259 22.52566698 -0.12170338 25.91235352 -0.16601562 C28.06534359 -0.17122283 30.21834153 -0.17391082 32.37133789 -0.17382812 C33.38292465 -0.19022339 34.39451141 -0.20661865 35.43675232 -0.22351074 C42.47089159 -0.15444343 42.47089159 -0.15444343 46.31494141 2.796875 C50.99966654 9.25061097 50.44264621 15.74120073 50.21899414 23.41992188 C53.51899414 23.41992188 56.81899414 23.41992188 60.21899414 23.41992188 C59.34887695 25.21623047 59.34887695 25.21623047 58.46118164 27.04882812 C47.03153279 48.83672088 47.03153279 48.83672088 42.21899414 72.41992188 C35.28899414 72.41992188 28.35899414 72.41992188 21.21899414 72.41992188 C22.78649414 74.66804688 24.35399414 76.91617188 25.96899414 79.23242188 C30.75285968 86.14509316 35.27248963 93.1982417 39.72241211 100.32910156 C43.48003243 106.32226815 47.42689318 112.15729355 51.47216797 117.95898438 C54.95749796 122.97796262 58.19318666 128.10879989 61.21899414 133.41992188 C65.11677744 129.87648251 67.97075725 126.0293221 70.93774414 121.68945312 C73.93347743 117.39591072 77.04337588 113.19129875 80.15649414 108.98242188 C83.90425999 103.9122601 87.6507639 98.84255176 91.34399414 93.73242188 C96.54243104 86.55903296 101.89410924 79.49959839 107.21899414 72.41992188 C100.94899414 72.08992188 94.67899414 71.75992188 88.21899414 71.41992188 C89.62666652 67.90074093 90.58359092 65.62597021 92.65258789 62.66992188 C93.36995117 61.64354614 93.36995117 61.64354614 94.10180664 60.59643555 C94.61485352 59.87818604 95.12790039 59.15993652 95.65649414 58.41992188 C96.45893555 57.29324097 96.45893555 57.29324097 97.27758789 56.14379883 C102.24725085 49.24824496 107.51026291 42.714164 113.21899414 36.41992188 C113.73026855 35.84741699 114.24154297 35.27491211 114.76831055 34.68505859 C116.33360524 32.94919612 117.92607832 31.24367001 119.53149414 29.54492188 C120.01102539 29.01406982 120.49055664 28.48321777 120.98461914 27.9362793 C122.39477539 26.49023437 122.39477539 26.49023437 125.21899414 24.41992188 C130.83645002 24.37741906 133.48383771 26.93046262 137.39086914 30.58398438 C143.6589235 36.8788253 145.51768001 41.80205755 145.52539062 50.6315918 C145.53371414 51.4453125 145.54203766 52.2590332 145.5506134 53.09741211 C145.57466414 55.78178734 145.58348078 58.46591914 145.59008789 61.15039062 C145.59906008 63.02500987 145.60818203 64.8996284 145.6174469 66.77424622 C145.63392757 70.70408871 145.64163496 74.63384613 145.64453125 78.5637207 C145.64990486 83.57942537 145.68754654 88.59432078 145.73327541 93.60979748 C145.76314382 97.48335119 145.77025698 101.35671266 145.7712574 105.23037148 C145.77544262 107.07821662 145.78780813 108.92606324 145.80877495 110.77379417 C146.02298097 131.2889705 146.02298097 131.2889705 138.4047699 139.33634949 C133.70250069 143.75353466 129.15741339 145.66046227 122.66705322 145.70080566 C121.56251801 145.71222595 120.45798279 145.72364624 119.31997681 145.7354126 C118.1177951 145.73764832 116.9156134 145.73988403 115.67700195 145.7421875 C113.76638474 145.75708221 113.76638474 145.75708221 111.81716919 145.77227783 C108.32937088 145.7984483 104.84164944 145.81140055 101.35376835 145.82029915 C99.17151174 145.82617351 96.98927585 145.83438554 94.80702972 145.8433075 C87.96997914 145.87063771 81.13297624 145.8899803 74.29587483 145.89771128 C66.42058215 145.90666674 58.54598478 145.94174216 50.67090344 145.99971247 C44.57218436 146.04303811 38.47366024 146.0631247 32.374789 146.06579351 C28.7374536 146.06788323 25.10077264 146.07955843 21.46360016 146.11543274 C17.40149704 146.15472074 13.34083705 146.14578111 9.27856445 146.1328125 C8.08447968 146.15124207 6.8903949 146.16967163 5.66012573 146.18865967 C-2.03365047 146.1118587 -7.03632309 144.66292063 -12.78100586 139.41992188 C-18.71169087 132.74430133 -21.08518382 127.26640732 -21.05566406 118.25244141 C-21.06077499 117.4436554 -21.06588593 116.63486938 -21.07115173 115.80157471 C-21.08502041 113.13521874 -21.08409288 110.46912207 -21.08178711 107.80273438 C-21.08567582 105.94334823 -21.09001085 104.08396297 -21.09477234 102.22457886 C-21.1022289 98.32921468 -21.10194756 94.43394114 -21.09667969 90.53857422 C-21.09088883 85.55640513 -21.10780952 80.57460826 -21.13102436 75.59250069 C-21.1457854 71.75253138 -21.14663012 67.91265119 -21.14351463 64.07265854 C-21.14402675 62.23631936 -21.1492439 60.39997505 -21.15932655 58.56366348 C-21.17171834 55.99092977 -21.16488286 53.41891436 -21.15332031 50.84619141 C-21.16096405 50.09375153 -21.16860779 49.34131165 -21.17648315 48.56607056 C-21.11257085 42.10418305 -19.67704408 37.43341379 -15.13256836 32.60742188 C-11.89130773 28.21395231 -12.1090637 24.74003348 -12.15600586 19.41992188 C-12.15600586 8.42897165 -12.15600586 8.42897165 -8.78100586 3.41992188 C-5.8381342 0.76202681 -3.94390968 0.04006572 0 0 Z " fill="#E29D1A" transform="translate(27.781005859375,16.580078125)"/>
<path d="M0 0 C1.41683327 -0.0238678 1.41683327 -0.0238678 2.86228943 -0.04821777 C3.87590042 -0.04841919 4.88951141 -0.04862061 5.93383789 -0.04882812 C6.98172989 -0.05644165 8.02962189 -0.06405518 9.10926819 -0.07189941 C11.32412332 -0.08269881 13.53902936 -0.08555418 15.75390625 -0.08105469 C19.14092 -0.08008259 22.52566698 -0.12170338 25.91235352 -0.16601562 C28.06534359 -0.17122283 30.21834153 -0.17391082 32.37133789 -0.17382812 C33.38292465 -0.19022339 34.39451141 -0.20661865 35.43675232 -0.22351074 C42.47089159 -0.15444343 42.47089159 -0.15444343 46.31494141 2.796875 C49.88859332 7.7199826 50.30632383 11.66217061 50.26196289 17.63476562 C50.25265747 19.25886353 50.25265747 19.25886353 50.24316406 20.91577148 C50.23518799 21.74214111 50.22721191 22.56851074 50.21899414 23.41992188 C49.60004776 23.4235675 48.98110138 23.42721313 48.34339905 23.43096924 C41.86983415 23.47295504 35.39696766 23.54241269 28.92382812 23.62744141 C26.51178999 23.65557296 24.09966101 23.67682614 21.6875 23.69091797 C18.20924633 23.71245514 14.73207602 23.75916322 11.25415039 23.81054688 C9.65048363 23.81238983 9.65048363 23.81238983 8.01441956 23.81427002 C1.92902165 23.93186921 -2.61435042 24.74555238 -8.04005432 27.56634521 C-9.78100586 28.41992188 -9.78100586 28.41992188 -11.78100586 28.41992188 C-11.86233228 25.37771122 -11.9216596 22.33769807 -11.96850586 19.29492188 C-11.99364258 18.43898438 -12.0187793 17.58304688 -12.04467773 16.70117188 C-12.10452649 11.5142794 -11.78146021 7.85654876 -8.78100586 3.41992188 C-5.83790498 0.76210146 -3.94411612 0.04006782 0 0 Z " fill="#B9740E" transform="translate(27.781005859375,16.580078125)"/>
</svg>
